<?xml version="1.0" encoding="utf-8"?>
<!DOCTYPE svg PUBLIC "-//W3C//DTD SVG 1.1//EN" "http://www.w3.org/Graphics/SVG/1.1/DTD/svg11.dtd">
<svg version="1.1" id="图形" xmlns="http://www.w3.org/2000/svg" xmlns:xlink="http://www.w3.org/1999/xlink" x="0px" y="0px" width="1024px" height="1024px" viewBox="0 0 1024 1024" enable-background="new 0 0 1024 1024" xml:space="preserve">
  <path fill="#272636" d="M823.296 739.584q65.536 0 99.328-38.4t33.792-93.696v-543.744q0-25.6-21.504-46.080l-171.008-163.84q-13.312-11.264-22.528-14.336t-23.552-3.072h-459.776q-23.552 0-47.104 9.728t-41.984 27.648-30.208 43.008-11.776 55.808v634.88q0 60.416 33.28 96.256t94.72 35.84h568.32zM608.256 97.536q13.312 0 22.528 9.216t9.216 22.528q0 14.336-9.216 23.040t-22.528 8.704h-320.512q-13.312 0-22.528-8.704t-9.216-23.040q0-13.312 9.216-22.528t22.528-9.216h320.512zM736.256 290.048q13.312 0 22.528 9.216t9.216 22.528-9.216 22.528-22.528 9.216h-448.512q-13.312 0-22.528-9.216t-9.216-22.528 9.216-22.528 22.528-9.216h448.512zM799.744 481.536q13.312 0 22.528 9.216t9.216 23.552q0 13.312-9.216 22.528t-22.528 9.216h-512q-13.312 0-22.528-9.216t-9.216-22.528q0-14.336 9.216-23.552t22.528-9.216h512z" transform="translate(0, 812) scale(1, -1)"/>
</svg>
