<?xml version="1.0" encoding="utf-8"?>
<!DOCTYPE svg PUBLIC "-//W3C//DTD SVG 1.1//EN" "http://www.w3.org/Graphics/SVG/1.1/DTD/svg11.dtd">
<svg version="1.1" id="图形" xmlns="http://www.w3.org/2000/svg" xmlns:xlink="http://www.w3.org/1999/xlink" x="0px" y="0px" width="1024px" height="1024px" viewBox="0 0 1024 1024" enable-background="new 0 0 1024 1024" xml:space="preserve">
  <path fill="#272636" d="M415.074484 412.910583l31.927153 0 0-335.235111-31.927153 0 0 335.235111ZM574.71025 412.910583l31.927153 0 0-335.235111-31.927153 0 0 335.235111ZM686.455287 572.54635l0 95.78146c0 17.631566-14.295588 31.927153-31.927153 31.927153l-287.344381 0c-17.631566 0-31.927153-14.295588-31.927153-31.927153l0-95.78146-207.526497 0 0-47.89073 95.78146 0 0-558.725184c0-35.263132 28.591175-63.854307 63.854307-63.854307l446.980147 0c35.263132 0 63.854307 28.591175 63.854307 63.854307l0 558.725184 95.78146 0 0 47.89073L686.455287 572.54635zM383.14733 636.400656c0 8.823969 7.139607 15.963577 15.963577 15.963577l223.490074 0c8.822946 0 15.963577-7.139607 15.963577-15.963577l0-63.854307-255.417227 0L383.14733 636.400656zM750.309594-18.105988c0-17.631566-14.295588-31.927153-31.927153-31.927153l-415.052994 0c-17.631566 0-31.927153 14.295588-31.927153 31.927153l0 542.761608 478.907301 0L750.309594-18.105988z" transform="translate(0, 812) scale(1, -1)"/>
</svg>
