<?xml version="1.0" encoding="utf-8"?>
<!DOCTYPE svg PUBLIC "-//W3C//DTD SVG 1.1//EN" "http://www.w3.org/Graphics/SVG/1.1/DTD/svg11.dtd">
<svg version="1.1" id="图形" xmlns="http://www.w3.org/2000/svg" xmlns:xlink="http://www.w3.org/1999/xlink" x="0px" y="0px" width="1024px" height="1024px" viewBox="0 0 1024 1024" enable-background="new 0 0 1024 1024" xml:space="preserve">
  <path fill="#272636" d="M513.490507 747.88168c-247.565309 0-448.243877-200.654996-448.243877-448.197882 0-247.542886 200.663218-448.231651 448.243877-448.231651 247.552005 0 448.25718 200.688765 448.25718 448.231651C961.747687 547.225661 761.057862 747.88168 513.490507 747.88168zM513.490507-92.521838c-216.27644 0-393.103833 175.939081-393.103833 392.204613 0 216.253252 176.827393 392.171867 393.103833 392.171867 216.275417 0 392.227847-175.919638 392.227847-392.171867C905.718353 83.417243 729.765923-92.521838 513.490507-92.521838zM512.915385 522.585471 343.07746 357.117882c-5.472866-5.471618-8.208275-12.640901-8.208275-19.810185s2.736433-14.338566 8.208275-19.796882c10.932428-10.946306 28.663981-10.946306 39.610736 0l103.09516 103.101169 0-317.300646c0-15.488763 12.533968-28.006867 28.008015-28.006867s28.008015 12.518105 28.008015 28.006867L541.799386 418.864178l101.356492-101.352339c10.946755-10.946306 28.679331-10.946306 39.625063 0 10.946755 10.945283 10.946755 28.662807 0 39.607066L512.915385 522.585471z" transform="translate(0, 812) scale(1, -1)"/>
</svg>
