<?xml version="1.0" encoding="utf-8"?>
<!DOCTYPE svg PUBLIC "-//W3C//DTD SVG 1.1//EN" "http://www.w3.org/Graphics/SVG/1.1/DTD/svg11.dtd">
<svg version="1.1" id="图形" xmlns="http://www.w3.org/2000/svg" xmlns:xlink="http://www.w3.org/1999/xlink" x="0px" y="0px" width="1024px" height="1024px" viewBox="0 0 1024 1024" enable-background="new 0 0 1024 1024" xml:space="preserve">
  <path fill="#272636" d="M512-148C264.96-148 64 52.96 64 300S264.96 748 512 748s448-200.96 448-448S759.04-148 512-148zM512 683.712C300.416 683.712 128.288 511.584 128.288 300c0-211.552 172.128-383.712 383.712-383.712 211.552 0 383.712 172.16 383.712 383.712C895.712 511.584 723.552 683.712 512 683.712zM557.056 298.624l138.368 136.864c12.576 12.416 12.672 32.672 0.256 45.248-12.416 12.576-32.704 12.672-45.248 0.256l-138.56-137.024-136.448 136.864c-12.512 12.512-32.736 12.576-45.248 0.064-12.512-12.48-12.544-32.736-0.064-45.248l136.256-136.672-137.376-135.904c-12.576-12.448-12.672-32.672-0.256-45.248 6.272-6.336 14.496-9.504 22.752-9.504 8.128 0 16.256 3.104 22.496 9.248l137.568 136.064 138.688-139.136c6.24-6.272 14.432-9.408 22.656-9.408 8.192 0 16.352 3.136 22.592 9.344 12.512 12.48 12.544 32.704 0.064 45.248L557.056 298.624z" transform="translate(0, 812) scale(1, -1)"/>
</svg>
