<?xml version="1.0" encoding="utf-8"?>
<!DOCTYPE svg PUBLIC "-//W3C//DTD SVG 1.1//EN" "http://www.w3.org/Graphics/SVG/1.1/DTD/svg11.dtd">
<svg version="1.1" id="图形" xmlns="http://www.w3.org/2000/svg" xmlns:xlink="http://www.w3.org/1999/xlink" x="0px" y="0px" width="1024px" height="1024px" viewBox="0 0 1024 1024" enable-background="new 0 0 1024 1024" xml:space="preserve">
  <path fill="#272636" d="M954.683657 407.251864c-4.816591 14.385309-17.108629 24.748278-32.072903 27.043457l-258.239837 39.860941L548.89071 721.404297c-6.572944 14.064203-20.8573 23.180454-36.477164 23.224241-15.469042 0-29.752181-9.05057-36.393239-23.067337L350.342548 455.484674c-9.470197-20.072779-0.856283-44.124111 19.207982-53.616202 5.439342-2.567632 11.22655-3.870301 17.201069-3.869085 15.506748 0 29.80205 9.059084 36.418782 23.074634l89.071665 188.570763 88.316336-189.086479c5.730041-12.180138 17.070924-20.676069 30.340876-22.725553l202.034109-31.174049L685.121182 215.629377c-8.899747-9.105304-12.995066-22.024958-10.954096-34.545663l34.003188-210.885204-177.351511 98.361848c-5.950193 3.331476-12.708016 5.09391-19.5449 5.09391-6.774852 0-13.492537-1.73081-19.415971-4.999038l-177.789383-97.814508 34.723244 210.815874c2.043402 12.518272-2.016644 25.440359-10.871387 34.576071L189.109589 369.305396l75.535341 12.951279c21.868054 3.772996 36.619473 24.62908 32.884182 46.495918-3.318096 19.389212-19.997368 33.463146-39.66025 33.463146-2.261122 0-4.549003-0.190961-6.839316-0.572882l-150.900398-25.877015c-14.773312-2.543306-26.834252-12.97074-31.461098-27.179684-4.686446-14.213809-1.09468-29.744884 9.377757-40.540859l187.944363-193.333837L221.119244-97.812731c-2.482491-15.112663 3.996798-30.585354 16.496825-39.408474 6.840533-4.842134 14.885213-7.402468 23.268028-7.401252 6.769987 0 13.474292 1.728378 19.3734 4.988091l230.893518 127.008403 230.394831-127.800221c5.963572-3.318096 12.717747-5.0708 19.533953-5.0708 8.431467 0 16.451821 2.562767 23.119638 7.357465 12.534084 8.810956 19.055943 24.26297 16.61724 39.36347l-43.948962 272.648256 188.404129 192.505529C955.862262 377.208985 959.471057 392.865339 954.683657 407.251864z" transform="translate(0, 812) scale(1, -1)"/>
</svg>
