<?xml version="1.0" encoding="utf-8"?>
<!DOCTYPE svg PUBLIC "-//W3C//DTD SVG 1.1//EN" "http://www.w3.org/Graphics/SVG/1.1/DTD/svg11.dtd">
<svg version="1.1" id="图形" xmlns="http://www.w3.org/2000/svg" xmlns:xlink="http://www.w3.org/1999/xlink" x="0px" y="0px" width="1024px" height="1024px" viewBox="0 0 1024 1024" enable-background="new 0 0 1024 1024" xml:space="preserve">
  <path fill="#272636" d="M512-146.016C266.08-146.016 65.984 54.048 65.984 300 65.984 545.92 266.08 746.016 512 746.016c245.952 0 446.016-200.064 446.016-446.016C958.016 54.048 757.952-146.016 512-146.016zM512 682.016C301.344 682.016 129.984 510.656 129.984 300c0-210.624 171.36-382.016 382.016-382.016 210.624 0 382.016 171.36 382.016 382.016C894.016 510.656 722.624 682.016 512 682.016zM512 508m-48 0a1.5 1.5 0 1 0 96 0 1.5 1.5 0 1 0-96 0ZM512 44c-17.664 0-32 14.304-32 32l0 288c0 17.664 14.336 32 32 32s32-14.336 32-32l0-288C544 58.304 529.664 44 512 44z" transform="translate(0, 812) scale(1, -1)"/>
</svg>
