<?xml version="1.0" encoding="utf-8"?>
<!DOCTYPE svg PUBLIC "-//W3C//DTD SVG 1.1//EN" "http://www.w3.org/Graphics/SVG/1.1/DTD/svg11.dtd">
<svg version="1.1" id="图形" xmlns="http://www.w3.org/2000/svg" xmlns:xlink="http://www.w3.org/1999/xlink" x="0px" y="0px" width="1024px" height="1024px" viewBox="0 0 1024 1024" enable-background="new 0 0 1024 1024" xml:space="preserve">
  <path fill="#272636" d="M512 44c-17.664 0-32 14.304-32 32l0 96c0 17.696 14.336 32 32 32s32-14.304 32-32l0-96C544 58.304 529.664 44 512 44zM832-148 192-148c-52.928 0-96 43.072-96 96L96 332c0 52.928 43.072 96 96 96l640 0c52.928 0 96-43.072 96-96l0-384C928-104.928 884.928-148 832-148zM192 364c-17.632 0-32-14.368-32-32l0-384c0-17.664 14.368-32 32-32l640 0c17.664 0 32 14.336 32 32L864 332c0 17.632-14.336 32-32 32L192 364zM288 396c-17.664 0-32 14.336-32 32L256 492.672c0 160.064 135.392 255.744 266.304 255.744 100.672 0 198.72-59.872 244.032-148.992 8-15.744 1.728-35.008-14.016-43.04-15.776-8-35.04-1.696-43.04 14.016-34.656 68.16-109.792 113.984-186.976 113.984C422.848 684.416 320 612.704 320 492.672L320 428C320 410.336 305.664 396 288 396z" transform="translate(0, 812) scale(1, -1)"/>
</svg>
