<?xml version="1.0" encoding="utf-8"?>
<!DOCTYPE svg PUBLIC "-//W3C//DTD SVG 1.1//EN" "http://www.w3.org/Graphics/SVG/1.1/DTD/svg11.dtd">
<svg version="1.1" id="图形" xmlns="http://www.w3.org/2000/svg" xmlns:xlink="http://www.w3.org/1999/xlink" x="0px" y="0px" width="1024px" height="1024px" viewBox="0 0 1024 1024" enable-background="new 0 0 1024 1024" xml:space="preserve">
  <path fill="#272636" d="M920.201366-137.947317 103.798634-137.947317c-23.32722 0-42.233756 18.931512-42.233756 42.20878L61.564878 608.074146c0 23.32722 18.906537 42.233756 42.233756 42.233756l84.442537 0 0-42.233756c0-54.421854 44.106927-98.52878 98.52878-98.52878 54.421854 0 98.52878 44.106927 98.52878 98.52878L385.298732 650.307902l253.377561 0 0-42.233756c0-54.421854 44.106927-98.52878 98.503805-98.52878s98.52878 44.106927 98.52878 98.52878L835.708878 650.307902l84.467512 0c23.302244 0 42.20878-18.906537 42.20878-42.233756l0-703.812683C962.410146-119.015805 943.478634-137.947317 920.201366-137.947317zM877.96761 425.077854 146.007415 425.077854l0-478.582634 731.960195 0L877.96761 425.077854zM737.205073 565.84039c-23.302244 0-42.20878 18.906537-42.20878 42.233756L694.996293 720.689171c0 23.32722 18.931512 42.233756 42.20878 42.233756 23.352195 0 42.233756-18.906537 42.233756-42.233756l0-112.615024C779.438829 584.746927 760.532293 565.84039 737.205073 565.84039zM286.769951 565.84039c-23.32722 0-42.233756 18.906537-42.233756 42.233756L244.536195 720.689171c0 23.32722 18.906537 42.233756 42.233756 42.233756s42.20878-18.906537 42.20878-42.233756l0-112.615024C329.003707 584.746927 310.097171 565.84039 286.769951 565.84039z" transform="translate(0, 812) scale(1, -1)"/>
</svg>
