<?xml version="1.0" encoding="utf-8"?>
<!DOCTYPE svg PUBLIC "-//W3C//DTD SVG 1.1//EN" "http://www.w3.org/Graphics/SVG/1.1/DTD/svg11.dtd">
<svg version="1.1" id="图形" xmlns="http://www.w3.org/2000/svg" xmlns:xlink="http://www.w3.org/1999/xlink" x="0px" y="0px" width="1024px" height="1024px" viewBox="0 0 1024 1024" enable-background="new 0 0 1024 1024" xml:space="preserve">
  <path fill="#272636" d="M634.456083 177.551425c33.133983 33.133983 49.69722 72.890258 49.69722 119.944568 0 47.05431-16.563237 86.818093-49.69722 119.952076-33.141491 33.133983-72.897766 49.69722-119.952076 49.69722-47.05431 0-86.810585-16.563237-119.944568-49.69722-33.126475-33.126475-49.704729-72.897766-49.704729-119.952076 0-47.05431 16.578254-86.810585 49.704729-119.944568 33.133983-33.126475 72.890258-49.689712 119.944568-49.689712C561.558317 127.861713 601.314592 144.42495 634.456083 177.551425L634.456083 177.551425 634.456083 177.551425zM1023.444388 369.733031l0-147.124495c0-10.594165-7.951255-21.864074-18.552928-23.846256l-122.602494-18.560436c-8.604474-23.861273-17.231473-43.735656-25.835947-60.306402 15.234274-21.871582 39.095547-52.355147 70.908075-91.450694 8.604474-10.601673 8.604474-23.193037 0.660728-31.812528-11.930637-16.563237-33.79471-40.42451-65.607238-71.553786-31.80502-31.144292-52.347639-47.05431-62.296093-47.05431-5.293328 0-11.254892 1.989691-17.216457 5.961564l-91.450694 71.568803c-19.23618-9.933437-39.771291-18.560436-60.306402-25.182728-7.290527-60.298894-13.252092-101.39164-19.228672-123.248205-3.311146-12.606381-11.254892-18.567945-23.853765-18.567945L440.945514-211.444388c-12.583856 0-23.193037 8.619491-23.853765 19.874383l-18.552928 121.934259c-21.871582 7.298036-41.760982 15.249291-59.645674 24.529509l-93.432877-70.908075c-4.640109-3.971873-9.940946-5.961564-16.563237-5.961564-5.961564 0-11.938145 2.650418-16.570746 7.283019-55.666293 50.372964-92.111422 87.478821-109.342895 111.325077-3.303638 4.640109-4.625093 9.287726-4.625093 15.249291 0 5.293328 1.982183 10.601673 5.293328 15.234274 6.6298 9.280218 17.899709 23.853765 33.79471 43.735656 15.90251 20.535111 27.840655 35.79191 35.784401 47.061819-11.923128 21.864074-21.195838 43.735656-27.164911 65.592222L24.78479 201.412698c-11.262401 1.989691-19.221164 12.591364-19.221164 23.861273L5.563626 372.38345c0 10.601673 7.958763 21.871582 17.899709 23.861273l123.248205 18.560436c5.961564 20.535111 14.581055 40.42451 25.850964 60.959621-17.892201 25.182728-41.092746 55.673801-70.900567 91.450694-4.647617 5.308345-6.644816 10.609181-6.644816 15.917526 0 4.632601 1.997199 9.27271 5.976581 15.234274 11.254892 15.90251 33.133983 39.756275 64.931494 70.908075 32.473255 31.812528 53.023383 47.715038 62.964328 47.715038 5.961564 0 11.254892-1.982183 17.231473-6.622292l91.450694-70.908075c19.213656 9.940946 39.756275 18.54542 60.298894 25.17522 7.298036 60.31391 13.2596 101.39164 19.221164 123.263222 3.311146 12.583856 11.269909 18.552928 23.853765 18.552928l147.116987 0c12.598872 0 23.185529-8.611982 23.853765-19.881891l18.567945-121.934259c21.856566-7.283019 41.738457-15.234274 59.630658-24.514492l94.093604 70.908075c3.979382 3.979382 9.27271 5.961564 15.90251 5.961564 5.976581 0 11.269909-1.982183 16.578254-6.622292 56.987748-52.362655 93.432877-90.121731 109.335386-112.661549 3.311146-3.311146 4.647617-8.604474 4.647617-14.566038 0-5.308345-1.997199-10.609181-5.308345-15.249291-6.6298-9.27271-17.884692-23.861273-33.802219-44.403892-15.895002-19.874383-27.81813-35.116166-35.784401-46.386075 11.277417-21.864074 20.542619-43.735656 27.172419-64.939003l121.266023-18.54542C1015.493133 391.589597 1023.444388 381.00294 1023.444388 369.733031L1023.444388 369.733031z" transform="translate(0, 812) scale(1, -1)"/>
</svg>
