<?xml version="1.0" encoding="utf-8"?>
<!DOCTYPE svg PUBLIC "-//W3C//DTD SVG 1.1//EN" "http://www.w3.org/Graphics/SVG/1.1/DTD/svg11.dtd">
<svg version="1.1" id="图形" xmlns="http://www.w3.org/2000/svg" xmlns:xlink="http://www.w3.org/1999/xlink" x="0px" y="0px" width="1024px" height="1024px" viewBox="0 0 1024 1024" enable-background="new 0 0 1024 1024" xml:space="preserve">
  <path fill="#272636" d="M512 748C264.96 748 64 547.04 64 300s200.96-448 448-448 448 200.96 448 448S759.04 748 512 748zM640.768 236c17.696 0 32-14.304 32-32s-14.304-32-32-32L544 172l0-95.136c0-17.696-14.304-32-32-32s-32 14.304-32 32L480 172l-95.104 0c-17.696 0-32 14.304-32 32s14.304 32 32 32L480 236l0 64-95.104 0c-17.696 0-32 14.304-32 32s14.304 32 32 32L480 364l0 19.776-118.432 118.624c-12.544 12.48-12.064 32.736 0.416 45.248 12.512 12.576 32.704 12.512 45.216 0.064l107.584-107.36 101.632 106.784c12.288 12.832 32.416 13.216 45.152 1.12 12.8-12.192 13.056-32.48 0.864-45.248L544 379.136 544 364l96.768 0c17.696 0 32-14.304 32-32s-14.304-32-32-32L544 300l0-64L640.768 236z" transform="translate(0, 812) scale(1, -1)"/>
</svg>
