<?xml version="1.0" encoding="utf-8"?>
<!DOCTYPE svg PUBLIC "-//W3C//DTD SVG 1.1//EN" "http://www.w3.org/Graphics/SVG/1.1/DTD/svg11.dtd">
<svg version="1.1" id="图形" xmlns="http://www.w3.org/2000/svg" xmlns:xlink="http://www.w3.org/1999/xlink" x="0px" y="0px" width="1024px" height="1024px" viewBox="0 0 1024 1024" enable-background="new 0 0 1024 1024" xml:space="preserve">
  <path fill="#ffffff" d="M352.512-20c-35.36 0-64-28.64-64-64s28.64-64 64-64 64 28.64 64 64S387.872-20 352.512-20L352.512-20zM800.512-20c-35.36 0-64-28.64-64-64s28.64-64 64-64 64 28.64 64 64S835.872-20 800.512-20L800.512-20zM864 12 344.224 12c-46.112 0-86.656 36.48-92.288 83.04l-54.272 382.08-30.88 178.56C164.864 671.264 150.656 684 136.768 684L96 684C78.336 684 64 698.336 64 716s14.336 32 32 32l40.768 0c46.688 0 87.68-36.48 93.344-83.04l30.816-177.888 54.496-383.712C317.216 88.512 330.656 76 344.224 76L864 76c17.696 0 32-14.304 32-32S881.696 12 864 12zM384.224 140c-16.608 0-30.656 12.8-31.872 29.664-1.312 17.632 11.936 32.96 29.536 34.24l434.112 32c15.936 0.096 29.376 12.608 31.136 26.848l50.4 288.384c1.28 10.752-1.696 22.528-8.128 29.824C885.28 585.632 880.096 588 874.048 588L320 588C302.336 588 288 602.336 288 620s14.336 32 32 32l554.048 0c24.448 0 46.912-10.144 63.264-28.608 18.688-21.088 27.264-50.816 23.52-81.632l-50.432-288.416C904.96 208.48 864.448 172 818.336 172l-431.744-31.904C385.792 140.032 384.992 140 384.224 140z" transform="translate(0, 812) scale(1, -1)"/>
</svg>
