<?xml version="1.0" encoding="utf-8"?>
<!DOCTYPE svg PUBLIC "-//W3C//DTD SVG 1.1//EN" "http://www.w3.org/Graphics/SVG/1.1/DTD/svg11.dtd">
<svg version="1.1" id="图形" xmlns="http://www.w3.org/2000/svg" xmlns:xlink="http://www.w3.org/1999/xlink" x="0px" y="0px" width="1024px" height="1024px" viewBox="0 0 1024 1024" enable-background="new 0 0 1024 1024" xml:space="preserve">
  <path fill="#272636" d="M641.312-54.208c-35.328 0-64 28.672-64 64s28.672 64 64 64l64.992 0-0.224 63.2c0 17.536-14.88 31.808-32.416 31.968-0.48 0-33.696 0.352-65.696 1.888l0 31.552c96 76.64 95.232 178.848 96.736 269.824 0.384 5.568 1.504 11.104 1.504 16.736 0 5.888 0 11.232-0.384 16.608l-0.384 8.736c-6.688 140.64-70.912 217.504-189.92 228.352-8.32 1.056-16.96 1.76-25.664 1.984-1.824 0.192-3.616 0.352-8.32 0.352-2.016 0-3.84-0.16-5.376-0.32-8.992-0.256-17.632-0.928-24.768-1.888C331.328 731.776 266.976 654.88 260.256 513.408L259.744 505.696c-0.416-5.408-0.768-10.848-0.768-16.736 0-10.336-0.896-20.512-0.032-28.448C262.496 370.368 288 277.28 352 203.808l0-37.696c-128-18.048-254.528-67.008-254.528-152.992 0-159.136 309.568-167.2 371.456-167.2l13.024 0.16 14.112-0.16c16.32 0 101.984 0.864 185.408 18.464 14.816 3.136 25.44 16.192 25.44 31.328l-0.192 50.048L641.312-54.24zM897.568 44 800 44l0 93.92c0 17.696-14.304 32-32 32s-32-14.304-32-32L736 44l-94.688 0c-17.696 0-32-14.304-32-32s14.304-32 32-32L736-20l0-98.336c0-17.696 14.304-32 32-32s32 14.304 32 32L800-20l97.568 0c17.696 0 32 14.304 32 32S915.264 44 897.568 44z" transform="translate(0, 812) scale(1, -1)"/>
</svg>
