<?xml version="1.0" encoding="utf-8"?>
<!DOCTYPE svg PUBLIC "-//W3C//DTD SVG 1.1//EN" "http://www.w3.org/Graphics/SVG/1.1/DTD/svg11.dtd">
<svg version="1.1" id="图形" xmlns="http://www.w3.org/2000/svg" xmlns:xlink="http://www.w3.org/1999/xlink" x="0px" y="0px" width="1024px" height="1024px" viewBox="0 0 1024 1024" enable-background="new 0 0 1024 1024" xml:space="preserve">
  <path fill="#272636" d="M954.4-1.952l-137.664 180.288c48.832 46.656 79.456 112.224 79.456 184.928 0 141.152-114.848 256-256 256s-256-114.848-256-256 114.848-256 256-256c45.472 0 88.096 12.032 125.152 32.896l138.144-180.928c6.304-8.256 15.808-12.608 25.472-12.608 6.752 0 13.6 2.112 19.36 6.56C962.432-36.064 965.12-15.968 954.4-1.952zM448.224 363.296c0 105.888 86.112 192 192 192s192-86.112 192-192-86.112-192-192-192S448.224 257.408 448.224 363.296zM320 492 128 492c-17.664 0-32 14.336-32 32s14.336 32 32 32l192 0c17.664 0 32-14.336 32-32S337.664 492 320 492zM256 236 128 236c-17.664 0-32 14.304-32 32 0 17.664 14.336 32 32 32l128 0c17.664 0 32-14.336 32-32C288 250.304 273.664 236 256 236zM480 12 128 12c-17.664 0-32 14.304-32 32s14.336 32 32 32l352 0c17.664 0 32-14.304 32-32S497.664 12 480 12z" transform="translate(0, 812) scale(1, -1)"/>
</svg>
