<?xml version="1.0" encoding="utf-8"?>
<!DOCTYPE svg PUBLIC "-//W3C//DTD SVG 1.1//EN" "http://www.w3.org/Graphics/SVG/1.1/DTD/svg11.dtd">
<svg version="1.1" id="图形" xmlns="http://www.w3.org/2000/svg" xmlns:xlink="http://www.w3.org/1999/xlink" x="0px" y="0px" width="1024px" height="1024px" viewBox="0 0 1024 1024" enable-background="new 0 0 1024 1024" xml:space="preserve">
  <path fill="#272636" d="M516.03 723.174c-228.125 0-413.734-185.591-413.734-413.726 0-228.092 185.609-413.734 413.734-413.734 228.095 0 413.732 185.642 413.732 413.734C929.763 537.583 744.125 723.174 516.03 723.174zM464.281 100.57c0 28.586 23.163 51.764 51.75 51.764 28.585 0 51.764-23.178 51.764-51.764 0-28.571-23.179-51.749-51.764-51.749C487.444 48.821 464.281 71.999 464.281 100.57zM516.03-173.589c-266.368 0-483.045 216.673-483.045 483.038 0 266.367 216.678 483.046 483.045 483.046 266.366 0 483.044-216.679 483.044-483.046C999.074 43.084 782.396-173.589 516.03-173.589zM516.03 185.102c-19.026 0-34.499 12.313-34.499 27.487l0 46.418c0 44.94 43.147 79.288 81.231 109.574 27.895 22.25 56.795 45.212 56.795 63.525 0 45.797-46.45 83.039-103.527 83.039-58.021 0-103.496-35.655-103.496-81.169 0-15.158-15.473-27.461-34.499-27.461-19.058 0-34.516 12.303-34.516 27.461 0 75.044 77.396 136.101 172.511 136.101 95.131 0 172.524-61.881 172.524-137.97 0-41.112-39.153-72.253-77.017-102.382-30.002-23.861-61.01-48.516-61.01-70.686l0-46.436C550.528 197.447 535.088 185.102 516.03 185.102z" transform="translate(0, 812) scale(1, -1)"/>
</svg>
