<?xml version="1.0" encoding="utf-8"?>
<!DOCTYPE svg PUBLIC "-//W3C//DTD SVG 1.1//EN" "http://www.w3.org/Graphics/SVG/1.1/DTD/svg11.dtd">
<svg version="1.1" id="图形" xmlns="http://www.w3.org/2000/svg" xmlns:xlink="http://www.w3.org/1999/xlink" x="0px" y="0px" width="1024px" height="1024px" viewBox="0 0 1024 1024" enable-background="new 0 0 1024 1024" xml:space="preserve">
  <path fill="#272636" d="M721.475 716.087h-425.052c-39.888 0-72.234-32.346-72.234-72.252l0-703.619c0-39.888 32.346-72.252 72.234-72.252h425.052c39.888 0 72.234 32.364 72.234 72.252v703.62c0 39.906-32.346 72.251-72.234 72.251zM758.609-58.218c0-20.358-16.506-36.864-36.864-36.864h-425.088c-20.358 0-36.864 16.506-36.864 36.864l-0 701.37c0 20.376 16.506 36.864 36.864 36.864h425.088c20.358 0 36.864-16.488 36.864-36.864v-701.37zM701.549 642.359h-385.542c-10.188 0-18.432-8.244-18.432-18.432v-571.77c0-10.188 8.244-18.432 18.432-18.432h385.542c10.17 0 18.432 8.244 18.432 18.432v571.77c0 10.189-8.262 18.432-18.432 18.432zM703.043 68.448c0-9.27-7.489-16.776-16.758-16.776h-355.050c-9.252 0-16.758 7.506-16.758 16.776v539.369c0 9.252 7.506 16.758 16.758 16.758h355.050c9.27 0 16.758-7.506 16.758-16.758v-539.369zM508.606 15.222c-25.488 0-46.134-20.646-46.134-46.134 0-25.47 20.646-46.116 46.134-46.116 25.47 0 46.116 20.646 46.116 46.116 0 25.488-20.646 46.134-46.116 46.134zM508.535-58.867c-15.48 0-28.044 12.546-28.044 28.062 0 15.48 12.564 28.044 28.044 28.044 15.498 0 28.044-12.564 28.044-28.044-0.001-15.516-12.547-28.062-28.044-28.062z" transform="translate(0, 812) scale(1, -1)"/>
</svg>
