<svg display="none" version="1.1" xmlns="http://www.w3.org/2000/svg" xmlns:xlink="http://www.w3.org/1999/xlink">
<defs>
<symbol id="icon-iconfont-article" viewBox="0 0 1024 1024">
	<title>iconfont-article</title>
	<path class="path1" d="M823.296 72.416q65.536 0 99.328 38.4t33.792 93.696v543.744q0 25.6-21.504 46.080l-171.008 163.84q-13.312 11.264-22.528 14.336t-23.552 3.072h-459.776q-23.552 0-47.104-9.728t-41.984-27.648-30.208-43.008-11.776-55.808v-634.88q0-60.416 33.28-96.256t94.72-35.84h568.32zM608.256 714.464q13.312 0 22.528-9.216t9.216-22.528q0-14.336-9.216-23.040t-22.528-8.704h-320.512q-13.312 0-22.528 8.704t-9.216 23.040q0 13.312 9.216 22.528t22.528 9.216h320.512zM736.256 521.952q13.312 0 22.528-9.216t9.216-22.528-9.216-22.528-22.528-9.216h-448.512q-13.312 0-22.528 9.216t-9.216 22.528 9.216 22.528 22.528 9.216h448.512zM799.744 330.464q13.312 0 22.528-9.216t9.216-23.552q0-13.312-9.216-22.528t-22.528-9.216h-512q-13.312 0-22.528 9.216t-9.216 22.528q0 14.336 9.216 23.552t22.528 9.216h512z"></path>
</symbol>
<symbol id="icon-iconfont-date" viewBox="0 0 1024 1024">
	<title>iconfont-date</title>
	<path class="path1" d="M920.201 949.947h-816.403c-23.327 0-42.234-18.932-42.234-42.209v-703.813c0-23.327 18.907-42.234 42.234-42.234h84.443v42.234c0 54.422 44.107 98.529 98.529 98.529s98.529-44.107 98.529-98.529v-42.234h253.378v42.234c0 54.422 44.107 98.529 98.504 98.529s98.529-44.107 98.529-98.529v-42.234h84.468c23.302 0 42.209 18.907 42.209 42.234v703.813c0.025 23.277-18.907 42.209-42.184 42.209zM877.968 386.922h-731.96v478.583h731.96v-478.583zM737.205 246.16c-23.302 0-42.209-18.907-42.209-42.234v-112.615c0-23.327 18.932-42.234 42.209-42.234 23.352 0 42.234 18.907 42.234 42.234v112.615c0 23.327-18.907 42.234-42.234 42.234zM286.77 246.16c-23.327 0-42.234-18.907-42.234-42.234v-112.615c0-23.327 18.907-42.234 42.234-42.234s42.209 18.907 42.209 42.234v112.615c0.025 23.327-18.882 42.234-42.209 42.234z"></path>
</symbol>
<symbol id="icon-iconfont-delete" viewBox="0 0 1024 1024">
	<title>iconfont-delete</title>
	<path class="path1" d="M415.074 399.089h31.927v335.235h-31.927v-335.235zM574.71 399.089h31.927v335.235h-31.927v-335.235zM686.455 239.454v-95.781c0-17.632-14.296-31.927-31.927-31.927h-287.344c-17.632 0-31.927 14.296-31.927 31.927v95.781h-207.526v47.891h95.781v558.725c0 35.263 28.591 63.854 63.854 63.854h446.98c35.263 0 63.854-28.591 63.854-63.854v-558.725h95.781v-47.891h-207.526zM383.147 175.599c0-8.824 7.14-15.964 15.964-15.964h223.49c8.823 0 15.964 7.14 15.964 15.964v63.854h-255.417v-63.854zM750.31 830.106c0 17.632-14.296 31.927-31.927 31.927h-415.053c-17.632 0-31.927-14.296-31.927-31.927v-542.762h478.907v542.762z"></path>
</symbol>
<symbol id="icon-iconfont-favorfill" viewBox="0 0 1024 1024">
	<title>iconfont-favorfill</title>
	<path class="path1" d="M957.216 404.32c-3.808-11.36-13.632-19.68-25.504-21.504l-270.336-41.728-120.8-258.624c-5.248-11.232-16.544-18.432-28.928-18.464 0 0-0.032 0-0.064 0-12.384 0-23.648 7.136-28.928 18.336l-121.856 258.016-270.72 40.8c-11.872 1.792-21.728 10.048-25.568 21.408s-0.992 23.936 7.36 32.512l196.448 202.080-46.88 284.8c-1.984 12.096 3.104 24.256 13.12 31.328 9.984 7.072 23.168 7.808 33.888 1.92l241.824-133.024 241.312 133.856c4.832 2.624 10.176 3.968 15.52 3.968 0.256 0 0.48 0 0.64 0 17.696 0 32-14.304 32-32 0-3.968-0.704-7.776-2.016-11.296l-44.896-278.688 196.928-201.248c8.32-8.544 11.232-21.088 7.456-32.448z"></path>
</symbol>
<symbol id="icon-iconfont-friendadd" viewBox="0 0 1024 1024">
	<title>iconfont-friendadd</title>
	<path class="path1" d="M897.568 768h-97.568v-93.824c0-17.696-14.304-32-32-32s-32 14.304-32 32v93.824h-94.688c-17.696 0-32 14.304-32 32s14.304 32 32 32h94.688v98.432c0 17.696 14.304 32 32 32s32-14.304 32-32v-98.432h97.568c17.696 0 32-14.304 32-32s-14.304-32-32-32zM468 963.424c-86.976 0-370.72-11.968-370.72-166.176 0-85.472 127.424-133.664 256.032-152.032v-37.664c-84.672-81.216-93.792-189.088-95.488-284.544 0-158.496 86.144-256.608 224.832-256.608 147.744 0 222.656 86.144 222.656 256.032 0 79.36-31.648 146.432-64.096 208.288l-31.904 66.016v77.696c0 17.696-14.304 32-32 32s-32-14.304-32-32v-84.992c0-4.8 1.088-9.6 3.2-13.952l35.552-73.536c30.4-57.984 57.248-114.624 57.248-179.488 0-134.592-47.424-192.032-158.656-192.032-145.184 0-160.832 134.304-160.832 192.032 1.952 108.672 16.736 188.16 84.448 246.784 7.008 6.048 11.040 14.912 11.040 24.192v80c0 16.32-12.288 30.016-28.512 31.808-136.096 14.88-227.52 59.584-227.52 92 0 74.976 183.424 102.176 306.72 102.176 62.368 0 167.84-14.56 168.896-14.688 17.472-2.56 33.664 9.792 36.096 27.296s-9.792 33.664-27.296 36.096c-4.48 0.608-110.88 15.296-177.696 15.296z"></path>
</symbol>
<symbol id="icon-iconfont-friendaddfill" viewBox="0 0 1024 1024">
	<title>iconfont-friendaddfill</title>
	<path class="path1" d="M641.312 866.208c-35.328 0-64-28.672-64-64s28.672-64 64-64h64.992l-0.224-63.2c0-17.536-14.88-31.808-32.416-31.968-0.48 0-33.696-0.352-65.696-1.888v-31.552c96-76.64 95.232-178.848 96.736-269.824 0.384-5.568 1.504-11.104 1.504-16.736 0-5.888 0-11.232-0.384-16.608l-0.384-8.736c-6.688-140.64-70.912-217.504-189.92-228.352-8.32-1.056-16.96-1.76-25.664-1.984-1.824-0.192-3.616-0.352-8.32-0.352-2.016 0-3.84 0.16-5.376 0.32-8.992 0.256-17.632 0.928-24.768 1.888-120.064 11.008-184.416 87.904-191.136 229.376l-0.512 7.712c-0.416 5.408-0.768 10.848-0.768 16.736 0 10.336-0.896 20.512-0.032 28.448 3.552 90.144 29.056 183.232 93.056 256.704v37.696c-128 18.048-254.528 67.008-254.528 152.992 0 159.136 309.568 167.2 371.456 167.2l13.024-0.16 14.112 0.16c16.32 0 101.984-0.864 185.408-18.464 14.816-3.136 25.44-16.192 25.44-31.328l-0.192-50.048h-65.408zM897.568 768h-97.568v-93.92c0-17.696-14.304-32-32-32s-32 14.304-32 32v93.92h-94.688c-17.696 0-32 14.304-32 32s14.304 32 32 32h94.688v98.336c0 17.696 14.304 32 32 32s32-14.304 32-32v-98.336h97.568c17.696 0 32-14.304 32-32s-14.304-32-32-32z"></path>
</symbol>
<symbol id="icon-iconfont-iconfontcart" viewBox="0 0 1024 1024">
	<title>iconfont-iconfontcart</title>
	<path class="path1" d="M352.512 832c-35.36 0-64 28.64-64 64s28.64 64 64 64 64-28.64 64-64-28.64-64-64-64v0zM800.512 832c-35.36 0-64 28.64-64 64s28.64 64 64 64 64-28.64 64-64-28.64-64-64-64v0zM864 800h-519.776c-46.112 0-86.656-36.48-92.288-83.040l-54.272-382.080-30.88-178.56c-1.92-15.584-16.128-28.32-30.016-28.32h-40.768c-17.664 0-32-14.336-32-32s14.336-32 32-32h40.768c46.688 0 87.68 36.48 93.344 83.040l30.816 177.888 54.496 383.712c1.792 14.848 15.232 27.36 28.8 27.36h519.776c17.696 0 32 14.304 32 32s-14.304 32-32 32zM384.224 672c-16.608 0-30.656-12.8-31.872-29.664-1.312-17.632 11.936-32.96 29.536-34.24l434.112-32c15.936-0.096 29.376-12.608 31.136-26.848l50.4-288.384c1.28-10.752-1.696-22.528-8.128-29.824-4.128-4.672-9.312-7.040-15.36-7.040h-554.048c-17.664 0-32-14.336-32-32s14.336-32 32-32h554.048c24.448 0 46.912 10.144 63.264 28.608 18.688 21.088 27.264 50.816 23.52 81.632l-50.432 288.416c-5.44 44.864-45.952 81.344-92.064 81.344l-431.744 31.904c-0.8 0.064-1.6 0.096-2.368 0.096z"></path>
</symbol>
<symbol id="icon-iconfont-iconfontdeliver" viewBox="0 0 1024 1024">
	<title>iconfont-iconfontdeliver</title>
	<path class="path1" d="M352 576h-128c-17.664 0-32-14.304-32-32 0-17.664 14.336-32 32-32h96v-96c0-17.664 14.336-32 32-32s32 14.336 32 32v128c0 17.696-14.336 32-32 32zM702.144 666.88c-61.952 0-113.664 43.296-127.296 101.12h-123.808c-13.568-57.888-65.344-101.216-127.328-101.216-72.288 0-131.104 58.784-131.104 131.072 0 72.352 58.816 131.232 131.104 131.232 60.384 0 110.848-41.344 125.984-97.056h126.432c15.104 55.712 65.568 96.992 126.016 96.992 72.224 0 131.008-58.784 131.008-131.072s-58.784-131.072-131.008-131.072zM323.744 865.056c-36.992 0-67.104-30.144-67.104-67.232 0-36.96 30.080-67.072 67.104-67.072 36.992 0 67.072 30.080 67.072 67.072 0 37.088-30.080 67.232-67.072 67.232zM702.144 864.992c-36.96 0-67.072-30.080-67.072-67.072s30.080-67.072 67.072-67.072c36.928 0 67.008 30.080 67.008 67.072s-30.048 67.072-67.008 67.072zM864.032 96h-464.288c-43.968 0-79.744 35.776-79.744 79.744v92.512l-194.656 97.824c-1.376 0.704-2.72 1.504-4 2.4-36.096 25.376-56 64.96-56 111.52v321.984c0 17.696 14.336 32 32 32s32-14.304 32-32v-321.984c0-25.024 9.088-44.512 27.040-57.888l209.984-105.504c1.44-0.704 2.368-1.984 3.648-2.88 1.888-1.312 3.776-2.496 5.312-4.16 1.408-1.536 2.336-3.328 3.424-5.056s2.24-3.328 2.976-5.28c0.8-2.176 1.024-4.416 1.344-6.688 0.256-1.568 0.928-2.944 0.928-4.544v-112.256c0-8.672 7.072-15.744 15.744-15.744h464.288c17.632 0 31.968 14.592 31.968 32.512v607.488c0 17.696 14.304 32 32 32s32-14.304 32-32v-607.488c0-53.216-43.072-96.512-95.968-96.512z"></path>
</symbol>
<symbol id="icon-iconfont-iconfontedit" viewBox="0 0 1024 1024">
	<title>iconfont-iconfontedit</title>
	<path class="path1" d="M800 960h-576c-52.928 0-96-43.072-96-96v-640c0-52.928 43.072-96 96-96h448c17.696 0 32 14.336 32 32s-14.304 32-32 32h-448c-17.632 0-32 14.368-32 32v640c0 17.664 14.368 32 32 32h576c17.664 0 32-14.336 32-32v-512c0-17.664 14.304-32 32-32s32 14.336 32 32v512c0 52.928-43.072 96-96 96zM612 448c-8.192 0-16.384-3.136-22.624-9.376-12.512-12.512-12.512-32.736 0-45.248l318.016-318.016c12.512-12.512 32.736-12.512 45.248 0s12.512 32.736 0 45.248l-318.016 318.016c-6.24 6.272-14.432 9.376-22.624 9.376zM480 448h-192c-17.664 0-32-14.336-32-32s14.336-32 32-32h192c17.664 0 32 14.336 32 32s-14.336 32-32 32zM672 640h-384c-17.664 0-32-14.304-32-32s14.336-32 32-32h384c17.696 0 32 14.304 32 32s-14.304 32-32 32z"></path>
</symbol>
<symbol id="icon-iconfont-iconfontfavor" viewBox="0 0 1024 1024">
	<title>iconfont-iconfontfavor</title>
	<path class="path1" d="M954.684 404.748c-4.817-14.385-17.109-24.748-32.073-27.043l-258.24-39.861-115.48-247.248c-6.573-14.064-20.857-23.18-36.477-23.224-15.469 0-29.752 9.051-36.393 23.067l-125.678 266.077c-9.47 20.073-0.856 44.124 19.208 53.616 5.439 2.568 11.227 3.87 17.201 3.869 15.507 0 29.802-9.059 36.419-23.075l89.072-188.571 88.316 189.086c5.73 12.18 17.071 20.676 30.341 22.726l202.034 31.174-147.812 151.029c-8.9 9.105-12.995 22.025-10.954 34.546l34.003 210.885-177.352-98.362c-5.95-3.331-12.708-5.094-19.545-5.094-6.775 0-13.493 1.731-19.416 4.999l-177.789 97.815 34.723-210.816c2.043-12.518-2.017-25.44-10.871-34.576l-148.811-153.073 75.535-12.951c21.868-3.773 36.619-24.629 32.884-46.496-3.318-19.389-19.997-33.463-39.66-33.463-2.261 0-4.549 0.191-6.839 0.573l-150.9 25.877c-14.773 2.543-26.834 12.971-31.461 27.18-4.686 14.214-1.095 29.745 9.378 40.541l187.944 193.334-44.871 272.524c-2.482 15.113 3.997 30.585 16.497 39.408 6.841 4.842 14.885 7.402 23.268 7.401 6.77 0 13.474-1.728 19.373-4.988l230.894-127.008 230.395 127.8c5.964 3.318 12.718 5.071 19.534 5.071 8.431 0 16.452-2.563 23.12-7.357 12.534-8.811 19.056-24.263 16.617-39.363l-43.949-272.648 188.404-192.506c10.59-10.831 14.199-26.488 9.412-40.874z"></path>
</symbol>
<symbol id="icon-iconfont-iconfontform" viewBox="0 0 1024 1024">
	<title>iconfont-iconfontform</title>
	<path class="path1" d="M800 928h-576c-52.928 0-96-43.072-96-96v-640c0-52.928 43.072-96 96-96h576c52.928 0 96 43.072 96 96v640c0 52.928-43.072 96-96 96zM224 160c-17.632 0-32 14.368-32 32v640c0 17.664 14.368 32 32 32h576c17.664 0 32-14.336 32-32v-640c0-17.632-14.336-32-32-32h-576zM640.992 544.864h-353.216c-17.664 0-32-14.336-32-32s14.336-32 32-32h353.216c17.696 0 32 14.336 32 32s-14.304 32-32 32zM734.88 735.52h-447.232c-17.664 0-32-14.304-32-32s14.336-32 32-32h447.232c17.696 0 32 14.304 32 32s-14.304 32-32 32zM255.712 305.344c0-26.51 21.49-48 48-48s48 21.49 48 48c0 26.51-21.49 48-48 48s-48-21.49-48-48zM463.104 305.344c0-26.51 21.49-48 48-48s48 21.49 48 48c0 0 0 0 0 0 0 26.51-21.49 48-48 48s-48-21.49-48-48zM671.232 305.344c0-26.51 21.49-48 48-48s48 21.49 48 48c0 26.51-21.49 48-48 48s-48-21.49-48-48z"></path>
</symbol>
<symbol id="icon-iconfont-iconfonthome" viewBox="0 0 1024 1024">
	<title>iconfont-iconfonthome</title>
	<path class="path1" d="M979.84 404.544l-405.568-320.544c-34.912-27.648-89.696-27.616-124.576 0l-405.536 320.544c-13.856 10.976-16.224 31.104-5.28 44.96s30.624 16.224 44.48 5.28l12.64-10.368v387.584c0 54.944 57.888 96 108.8 96h640c50.304 0 83.2-38.592 83.2-96v-386.080l11.68 8.864c5.888 4.64 13.12 6.88 20.064 6.88 9.44 0 18.912-4.16 25.216-12.16 10.976-13.856 8.768-33.984-5.12-44.96zM480 864v-177.408c0-8.832 16-13.248 32-13.248s32 4.416 32 13.248v177.408h-64zM864 832c0 21.216-5.856 32-19.2 32h-236.16c0-0.48-0.64-0.864-0.64-1.344v-176.064c0-37.216-30.016-77.28-96-77.28s-96 40.064-96 77.28v176.064c0 0.48 0.864 0.864 0.864 1.344h-212.064c-20.064 0-44.8-17.344-44.8-32v-438.176l328.928-259.616c11.808-9.344 33.12-9.344 44.96 0l330.112 261.12v436.672z"></path>
</symbol>
<symbol id="icon-iconfont-iconfontinfo" viewBox="0 0 1024 1024">
	<title>iconfont-iconfontinfo</title>
	<path class="path1" d="M512 958.016c-245.92 0-446.016-200.064-446.016-446.016 0-245.92 200.096-446.016 446.016-446.016 245.952 0 446.016 200.064 446.016 446.016s-200.064 446.016-446.016 446.016zM512 129.984c-210.656 0-382.016 171.36-382.016 382.016 0 210.624 171.36 382.016 382.016 382.016 210.624 0 382.016-171.36 382.016-382.016s-171.392-382.016-382.016-382.016zM464 304c0-26.51 21.49-48 48-48s48 21.49 48 48c0 26.51-21.49 48-48 48s-48-21.49-48-48zM512 768c-17.664 0-32-14.304-32-32v-288c0-17.664 14.336-32 32-32s32 14.336 32 32v288c0 17.696-14.336 32-32 32z"></path>
</symbol>
<symbol id="icon-iconfont-iconfontlist" viewBox="0 0 1024 1024">
	<title>iconfont-iconfontlist</title>
	<path class="path1" d="M896 256h-288c-17.696 0-32-14.336-32-32s14.304-32 32-32h288c17.696 0 32 14.336 32 32s-14.304 32-32 32zM896 416h-288c-17.696 0-32-14.336-32-32s14.304-32 32-32h288c17.696 0 32 14.336 32 32s-14.304 32-32 32zM896 672h-288c-17.696 0-32-14.304-32-32s14.304-32 32-32h288c17.696 0 32 14.304 32 32s-14.304 32-32 32zM896 832h-288c-17.696 0-32-14.304-32-32s14.304-32 32-32h288c17.696 0 32 14.304 32 32s-14.304 32-32 32zM384 480h-192c-52.928 0-96-43.072-96-96v-192c0-52.928 43.072-96 96-96h192c52.928 0 96 43.072 96 96v192c0 52.928-43.072 96-96 96zM192 160c-17.632 0-32 14.368-32 32v192c0 17.632 14.368 32 32 32h192c17.632 0 32-14.368 32-32v-192c0-17.632-14.368-32-32-32h-192zM384 928h-192c-52.928 0-96-43.072-96-96v-192c0-52.928 43.072-96 96-96h192c52.928 0 96 43.072 96 96v192c0 52.928-43.072 96-96 96zM192 608c-17.632 0-32 14.336-32 32v192c0 17.664 14.368 32 32 32h192c17.632 0 32-14.336 32-32v-192c0-17.664-14.368-32-32-32h-192z"></path>
</symbol>
<symbol id="icon-iconfont-iconfontlocation" viewBox="0 0 1024 1024">
	<title>iconfont-iconfontlocation</title>
	<path class="path1" d="M512 608c-105.888 0-192-86.112-192-192s86.112-192 192-192 192 86.112 192 192-86.112 192-192 192zM512 288c-70.592 0-128 57.408-128 128s57.408 128 128 128c70.592 0 128-57.408 128-128s-57.408-128-128-128zM512 960c-7.936 0-15.904-2.944-22.080-8.832-12.768-12.224-13.248-32.48-1.056-45.248 86.528-90.72 311.136-355.584 311.136-489.92 0-158.784-129.184-288-288-288-158.784 0-288 129.216-288 288 0 75.616 72.544 206.080 204.256 367.424 11.2 13.728 9.152 33.888-4.544 45.024-13.696 11.168-33.888 9.152-45.024-4.544-145.12-177.728-218.688-314.976-218.688-407.904 0-194.080 157.92-352 352-352s352 157.92 352 352c0 187.36-315.424 520.032-328.832 534.080-6.304 6.592-14.72 9.92-23.168 9.92z"></path>
</symbol>
<symbol id="icon-iconfont-iconfontmessage" viewBox="0 0 1024 1024">
	<title>iconfont-iconfontmessage</title>
	<path class="path1" d="M640 416h-256c-17.664 0-32-14.336-32-32s14.336-32 32-32h256c17.696 0 32 14.336 32 32s-14.304 32-32 32zM579.264 544h-195.264c-17.664 0-32-14.336-32-32s14.336-32 32-32h195.264c17.696 0 32 14.336 32 32s-14.336 32-32 32zM962.24 448c0-211.744-200.96-384-448-384s-448 172.256-448 384c0 116.512 63.040 226.048 172.928 300.672 14.624 9.984 34.528 6.144 44.448-8.512 9.92-14.624 6.112-34.528-8.512-44.448-92.064-62.496-144.864-152.768-144.864-247.712 0-176.448 172.256-320 384-320s384 143.552 384 320c0 176.448-172.256 320-384 320-1.984 0-3.68 0.768-5.568 1.12-15.136-2.72-30.464 5.216-35.776 20.192-6.144 17.376-46.368 46.656-94.144 73.792 17.44-58.208 9.088-70.688 3.488-78.976-6.72-9.984-17.92-15.936-29.92-15.936-17.664 0-32 14.304-32 32 0 5.824 1.536 11.264 4.256 15.968-3.232 18.208-17.216 60.832-33.056 99.84-4.928 12.096-1.984 25.984 7.392 35.072 6.080 5.888 14.112 8.992 22.272 8.992 4.384 0 8.8-0.896 12.992-2.752 36.48-16.256 147.648-69.12 187.616-125.632 243.552-3.52 440.448-174.112 440.448-383.68z"></path>
</symbol>
<symbol id="icon-iconfont-iconfontmy" viewBox="0 0 1024 1024">
	<title>iconfont-iconfontmy</title>
	<path class="path1" d="M512 64c-247.040 0-448 200.96-448 448s200.96 448 448 448 448-200.96 448-448-200.96-448-448-448zM289.216 824.16c3.168-0.128 6.336-0.224 9.472-1.344 62.784-22.24 124.8-38.24 158.016-40.8 16.672-1.28 29.536-15.2 29.536-31.904v-59.072c0-9.408-4.128-18.336-11.296-24.416-53.088-45.088-72-144.768-72-223.072 0-90.016 42.144-135.648 125.28-135.648 79.2 0 117.696 44.352 117.696 135.648 0 88.928-39.296 189.856-89.44 229.792-7.616 6.048-12.064 15.264-12.064 25.024v55.008c0 16.224 12.128 29.824 28.224 31.776 37.184 4.448 101.088 25.952 148.48 44.64 1.568 0.608 3.2 0.544 4.832 0.896-61.184 41.216-134.816 65.312-213.952 65.312-83.104 0-159.904-26.816-222.784-71.84zM764.608 800.512c0.224-12.96-7.296-25.248-20.064-30.304-20.8-8.192-84.16-32.32-136.128-43.68v-13.6c66.688-62.816 101.504-180.48 101.504-269.376 0-126.88-66.208-199.648-181.696-199.648-118.528 0-189.28 74.624-189.28 199.648 0 42.944 6.24 183.936 83.296 261.408v17.152c-44.704 7.904-101.44 25.024-144.928 40.416-15.008 5.312-22.976 20.704-20.16 35.936-79.008-70.4-129.152-172.544-129.152-286.464 0-211.744 172.256-384 384-384s384 172.256 384 384c0 115.008-51.072 218.080-131.392 288.512z"></path>
</symbol>
<symbol id="icon-iconfont-iconfontphone" viewBox="0 0 1024 1024">
	<title>iconfont-iconfontphone</title>
	<path class="path1" d="M368.992 830.304v1.184c-6.496 0-11.264 0.512-14.048 0.512h-3.296c-69.248 0-124.992-55.36-126.944-124.512-1.056-33.952 11.2-66.816 34.464-91.488s54.72-39.136 88.64-40.096c0.32 0 3.744-0.192 4.032-0.192 26.592 0 52.064 8.32 73.984 24.288 30.752 10.848 61.824-4.32 92.192-45.024 30.208-40.416 36.576-72.448 18.88-95.232-6.304-4.544-12.352-9.92-18.368-16.32-1.056-1.024-2.048-2.144-2.976-3.296-19.872-22.432-31.264-50.816-32.16-80.064-1.92-70.176 53.376-128.8 123.232-130.784 0.32 0 3.584-0.064 3.904-0.064 58.784 0 110.752 41.664 123.552 99.072 10.336 31.872 36.704 158.176-90.176 327.84-117.376 157.184-231.328 174.176-274.912 174.176zM364.896 766.208c18.976 0.416 118.592-2.24 227.616-148.416 111.36-148.928 86.016-253.376 79.776-272.832-7.104-31.168-32.8-51.776-61.888-51.776-36.704 1.024-64.096 30.144-63.168 64.992 0.576 18.496 9.312 31.968 16.544 39.968 0.224 0.256 0.48 0.544 0.672 0.8 4.032 4.352 7.808 7.648 11.552 10.080 2.368 1.568 4.576 3.424 6.432 5.568 19.616 22.112 57.6 83.84-13.28 178.624-45.792 61.28-92.704 74.112-124 74.144-16.096 0-32.096-3.296-47.52-9.728-2.656-1.12-5.184-2.592-7.456-4.384-7.968-6.272-21.088-13.76-38.432-13.76-18.976 0.544-34.56 7.52-46.048 19.712-11.52 12.256-17.6 28.288-17.088 45.12 0.96 34.4 28.64 61.248 62.976 61.248 0.16 0 0.192 0.032 0.064 0.064 1.184-0.192 2.496-0.352 3.264-0.416 3.424-0.032 6.784 0.224 9.984 0.992zM512 963.328c-60.224 0-118.624-11.744-173.6-34.88-16.288-6.88-23.936-25.632-17.056-41.92 6.848-16.32 25.632-23.904 41.92-17.088 47.072 19.808 97.12 29.888 148.768 29.888 211.744 0 384-172.256 384-384s-172.256-384-384-384c-211.744 0-384 172.256-384 384 0 72.384 20.256 142.88 58.56 203.904 9.376 14.976 4.864 34.72-10.080 44.096-14.976 9.408-34.72 4.896-44.128-10.080-44.768-71.264-68.384-153.536-68.384-237.92 0-247.008 200.96-448 448-448s448 200.96 448 448c0 247.008-200.96 448-448 448z"></path>
</symbol>
<symbol id="icon-iconfont-iconfontprofile" viewBox="0 0 1024 1024">
	<title>iconfont-iconfontprofile</title>
	<path class="path1" d="M382.72 960c-0.928 0-1.856-0.032-2.816-0.128-160.928-14.016-282.272-90.56-282.272-178.016 0-84.768 127.232-140.032 254.912-158.912v-12.544c-93.28-70.016-106.624-191.648-106.624-313.44 0-145.888 85.856-232.96 229.664-232.96 142.144 0 220.448 82.72 220.448 232.96 0 69.76-23.84 157.888-62.208 230.016-8.288 15.584-27.648 21.536-43.296 13.216-15.584-8.288-21.536-27.68-13.216-43.296 33.248-62.496 54.72-140.96 54.72-199.968 0-113.696-51.168-168.96-156.448-168.96-109.92 0-165.664 56.832-165.664 168.96 0 109.728 11.136 218.336 91.808 269.696 9.216 5.888 14.816 16.064 14.816 27.008v57.472c0 16.384-12.352 30.080-28.64 31.808-138.112 14.592-226.272 68.32-226.272 98.912 0 39.552 85.152 102.176 223.84 114.272 17.6 1.536 30.624 17.056 29.088 34.656-1.44 16.672-15.424 29.248-31.84 29.248zM768.768 768.064h-128c-17.696 0-32-14.304-32-32s14.304-32 32-32h128c17.696 0 32 14.304 32 32s-14.304 32-32 32zM704.768 867.264h-64c-17.696 0-32-14.304-32-32s14.304-32 32-32h64c17.696 0 32 14.304 32 32s-14.304 32-32 32zM832.672 963.264h-255.744c-52.928 0-96-43.072-96-96v-163.2c0-52.928 43.072-96 96-96h255.744c52.928 0 96 43.072 96 96v163.2c0 52.928-43.072 96-96 96zM576.896 672.064c-17.664 0-32 14.336-32 32v163.2c0 17.664 14.336 32 32 32h255.744c17.664 0 32-14.336 32-32v-163.2c0-17.664-14.336-32-32-32h-255.744z"></path>
</symbol>
<symbol id="icon-iconfont-iconfontquestion" viewBox="0 0 1024 1024">
	<title>iconfont-iconfontquestion</title>
	<path class="path1" d="M516.030 88.826c-228.125 0-413.734 185.591-413.734 413.726 0 228.092 185.609 413.734 413.734 413.734 228.095 0 413.732-185.642 413.732-413.734 0.001-228.135-185.637-413.726-413.732-413.726zM464.281 711.43c0-28.586 23.163-51.764 51.75-51.764 28.585 0 51.764 23.178 51.764 51.764 0 28.571-23.179 51.749-51.764 51.749-28.587 0-51.75-23.178-51.75-51.749zM516.030 985.589c-266.368 0-483.045-216.673-483.045-483.038 0-266.367 216.678-483.046 483.045-483.046s483.044 216.679 483.044 483.046c0 266.365-216.678 483.038-483.044 483.038zM516.030 626.898c-19.026 0-34.499-12.313-34.499-27.487v-46.418c0-44.94 43.147-79.288 81.231-109.574 27.895-22.25 56.795-45.212 56.795-63.525 0-45.797-46.45-83.039-103.527-83.039-58.021 0-103.496 35.655-103.496 81.169 0 15.158-15.473 27.461-34.499 27.461-19.058 0-34.516-12.303-34.516-27.461 0-75.044 77.396-136.101 172.511-136.101 95.131 0 172.524 61.881 172.524 137.97 0 41.112-39.153 72.253-77.017 102.382-30.002 23.861-61.010 48.516-61.010 70.686v46.436c0.001 15.156-15.439 27.501-34.497 27.501z"></path>
</symbol>
<symbol id="icon-iconfont-iconfontroundcheck" viewBox="0 0 1024 1024">
	<title>iconfont-iconfontroundcheck</title>
	<path class="path1" d="M512 960c-247.040 0-448-200.96-448-448s200.96-448 448-448 448 200.96 448 448-200.96 448-448 448zM512 128.288c-211.584 0-383.712 172.128-383.712 383.712 0 211.552 172.128 383.712 383.712 383.712 211.552 0 383.712-172.16 383.712-383.712 0-211.584-172.16-383.712-383.712-383.712zM726.976 393.184c-12.544-12.448-32.832-12.32-45.248 0.256l-233.28 235.84-103.264-106.112c-12.352-12.704-32.608-12.928-45.248-0.64-12.672 12.32-12.96 32.608-0.64 45.248l126.016 129.504c0.064 0.096 0.192 0.096 0.256 0.192 0.064 0.064 0.096 0.192 0.16 0.256 2.016 1.984 4.512 3.2 6.88 4.544 1.248 0.672 2.24 1.792 3.52 2.304 3.872 1.6 8 2.4 12.096 2.4 4.064 0 8.128-0.8 11.968-2.336 1.248-0.512 2.208-1.536 3.392-2.176 2.4-1.344 4.896-2.528 6.944-4.544 0.064-0.064 0.096-0.192 0.192-0.256 0.064-0.096 0.16-0.128 0.256-0.192l256.224-259.008c12.448-12.608 12.32-32.864-0.224-45.28z"></path>
</symbol>
<symbol id="icon-iconfont-iconfontroundclose" viewBox="0 0 1024 1024">
	<title>iconfont-iconfontroundclose</title>
	<path class="path1" d="M512 960c-247.040 0-448-200.96-448-448s200.96-448 448-448 448 200.96 448 448-200.96 448-448 448zM512 128.288c-211.584 0-383.712 172.128-383.712 383.712 0 211.552 172.128 383.712 383.712 383.712 211.552 0 383.712-172.16 383.712-383.712 0-211.584-172.16-383.712-383.712-383.712zM557.056 513.376l138.368-136.864c12.576-12.416 12.672-32.672 0.256-45.248s-32.704-12.672-45.248-0.256l-138.56 137.024-136.448-136.864c-12.512-12.512-32.736-12.576-45.248-0.064-12.512 12.48-12.544 32.736-0.064 45.248l136.256 136.672-137.376 135.904c-12.576 12.448-12.672 32.672-0.256 45.248 6.272 6.336 14.496 9.504 22.752 9.504 8.128 0 16.256-3.104 22.496-9.248l137.568-136.064 138.688 139.136c6.24 6.272 14.432 9.408 22.656 9.408 8.192 0 16.352-3.136 22.592-9.344 12.512-12.48 12.544-32.704 0.064-45.248l-138.496-138.944z"></path>
</symbol>
<symbol id="icon-iconfont-iconfontsearch" viewBox="0 0 1024 1024">
	<title>iconfont-iconfontsearch</title>
	<path class="path1" d="M953.504 908.256l-152.608-163.296c61.856-74.496 95.872-167.36 95.872-265.12 0-229.344-186.624-415.968-416.032-415.968-229.344 0-415.968 186.592-415.968 415.968s186.624 415.968 416 415.968c60.096-0.032 118.048-12.576 172.224-37.248 16.096-7.328 23.2-26.304 15.872-42.368-7.328-16.128-26.4-23.264-42.368-15.872-45.856 20.864-94.88 31.456-145.76 31.488-194.080 0-351.968-157.888-351.968-351.968 0-194.048 157.888-351.968 351.968-351.968 194.112 0 352.032 157.888 352.032 351.968 0 91.36-34.848 177.92-98.080 243.744-12.256 12.736-11.84 32.992 0.864 45.248 0.96 0.928 2.208 1.28 3.296 2.080 0.864 1.28 1.312 2.752 2.4 3.904l165.504 177.088c6.272 6.752 14.816 10.144 23.36 10.144 7.84 0 15.68-2.848 21.856-8.64 12.896-12 13.6-32.256 1.536-45.152z"></path>
</symbol>
<symbol id="icon-iconfont-iconfontshop" viewBox="0 0 1024 1024">
	<title>iconfont-iconfontshop</title>
	<path class="path1" d="M952.832 364.768c-0.064-0.48-0.16-0.928-0.256-1.312-0.384-1.856-0.896-3.648-1.632-5.376l-75.008-186.72c-12.992-38.72-50.304-62.464-93.952-62.56h-526.496c-44.224 0-78.592 23.52-91.040 60.704l-80.64 190.528c-0.384 1.12-0.8 2.784-1.152 4.48-5.856 17.984-8.8 36.448-8.8 54.976 0.064 65.152 35.808 124.64 93.248 155.264 0 0 0 0.032 0.032 0.032s0.032 0 0.032 0.032v0c0 0 0.032 0 0.032 0.032 23.648 12.608 51.456 19.008 82.784 19.008 52.512-0.16 101.152-23.232 134.304-62.72 32.992 39.168 81.248 62.080 133.664 62.4 52-0.416 100.128-23.424 132.96-62.56 33.152 39.488 81.856 62.464 134.624 62.464 31.936-0.16 60.288-6.88 84.16-19.968 56.576-30.912 91.68-90.176 91.648-154.656 0.096-18.528-2.944-37.12-8.512-54.048zM839.072 517.312c-14.496 7.936-32.576 12-53.6 12.128-38.976 0-74.496-19.776-95.232-53.344-1.472-3.168-3.936-8.416-8.544-13.472-5.28-5.92-14.88-12.928-30.688-12.928-12.736 0-24.288 5.216-30.816 13.216-4.32 4.864-6.688 9.696-8.384 13.216-20.48 33.152-55.712 53.12-93.888 53.408-38.656-0.224-73.984-20.128-94.592-53.536-1.44-2.944-3.84-7.904-7.584-12.096-15.040-17.952-48.704-17.024-61.824-1.376-4.832 5.28-7.36 10.592-8.992 14.208-20.672 33.152-56.224 53.024-95.008 53.152-20.672 0-38.368-3.872-52.64-11.488 0 0-0.032 0-0.032 0s0 0-0.032 0c-36.608-19.488-59.36-57.376-59.392-98.848 0-12.256 2.048-24.608 6.144-36.64 0.288-0.864 0.544-1.824 0.768-2.816l79.424-187.776c1.632-4.8 6.56-19.424 31.264-19.424h526.656c10.144 0.608 27.616 2.4 33.824 20.672l74.368 185.184c0.288 1.344 0.64 2.624 0.96 3.68 4.128 12.064 6.176 24.32 6.176 36.48 0.064 40.992-22.304 78.688-58.336 98.4zM863.072 620c-17.696 0-32 14.304-32 32l0.064 174.592c0 9.92-8.096 17.984-17.984 18.016l-602.080 0.384c-9.92 0-17.984-8-17.984-17.856l-0.224-171.584c-0.032-17.664-14.368-31.936-32-31.936 0 0-0.032 0-0.064 0-17.664 0.032-31.968 14.368-31.936 32.064l0.224 171.488c0 45.12 36.768 81.824 81.984 81.824l602.176-0.384c45.152-0.096 81.888-36.896 81.888-82.048l-0.064-174.56c0-17.696-14.336-32-32-32zM768 396h-512c-17.664 0-32-14.336-32-32s14.336-32 32-32h512c17.696 0 32 14.336 32 32s-14.304 32-32 32z"></path>
</symbol>
<symbol id="icon-iconfont-iconfontunlock" viewBox="0 0 1024 1024">
	<title>iconfont-iconfontunlock</title>
	<path class="path1" d="M512 768c-17.664 0-32-14.304-32-32v-96c0-17.696 14.336-32 32-32s32 14.304 32 32v96c0 17.696-14.336 32-32 32zM832 960h-640c-52.928 0-96-43.072-96-96v-384c0-52.928 43.072-96 96-96h640c52.928 0 96 43.072 96 96v384c0 52.928-43.072 96-96 96zM192 448c-17.632 0-32 14.368-32 32v384c0 17.664 14.368 32 32 32h640c17.664 0 32-14.336 32-32v-384c0-17.632-14.336-32-32-32h-640zM288 416c-17.664 0-32-14.336-32-32v-64.672c0-160.064 135.392-255.744 266.304-255.744 100.672 0 198.72 59.872 244.032 148.992 8 15.744 1.728 35.008-14.016 43.040-15.776 8-35.040 1.696-43.040-14.016-34.656-68.16-109.792-113.984-186.976-113.984-99.456-0.032-202.304 71.68-202.304 191.712v64.672c0 17.664-14.336 32-32 32z"></path>
</symbol>
<symbol id="icon-iconfont-ictrendingup24px" viewBox="0 0 1024 1024">
	<title>iconfont-ictrendingup24px</title>
	<path class="path1" d="M682.667 256l97.707 97.707-208.213 208.213-170.667-170.667-316.16 316.587 60.16 60.16 256-256 170.667 170.667 268.8-268.373 97.707 97.707v-256zM0 0h1024v1024h-1024z"></path>
</symbol>
<symbol id="icon-iconfont-phone" viewBox="0 0 1024 1024">
	<title>iconfont-phone</title>
	<path class="path1" d="M721.475 95.913h-425.052c-39.888 0-72.234 32.346-72.234 72.252v703.619c0 39.888 32.346 72.252 72.234 72.252h425.052c39.888 0 72.234-32.364 72.234-72.252v-703.62c0-39.906-32.346-72.251-72.234-72.251zM758.609 870.218c0 20.358-16.506 36.864-36.864 36.864h-425.088c-20.358 0-36.864-16.506-36.864-36.864v-701.37c0-20.376 16.506-36.864 36.864-36.864h425.088c20.358 0 36.864 16.488 36.864 36.864v701.37zM701.549 169.641h-385.542c-10.188 0-18.432 8.244-18.432 18.432v571.77c0 10.188 8.244 18.432 18.432 18.432h385.542c10.17 0 18.432-8.244 18.432-18.432v-571.77c0-10.189-8.262-18.432-18.432-18.432zM703.043 743.552c0 9.27-7.489 16.776-16.758 16.776h-355.050c-9.252 0-16.758-7.506-16.758-16.776v-539.369c0-9.252 7.506-16.758 16.758-16.758h355.050c9.27 0 16.758 7.506 16.758 16.758v539.369zM508.606 796.778c-25.488 0-46.134 20.646-46.134 46.134 0 25.47 20.646 46.116 46.134 46.116 25.47 0 46.116-20.646 46.116-46.116 0-25.488-20.646-46.134-46.116-46.134zM508.535 870.867c-15.48 0-28.044-12.546-28.044-28.062 0-15.48 12.564-28.044 28.044-28.044 15.498 0 28.044 12.564 28.044 28.044-0.001 15.516-12.547 28.062-28.044 28.062z"></path>
</symbol>
<symbol id="icon-iconfont-rechargefill" viewBox="0 0 1024 1024">
	<title>iconfont-rechargefill</title>
	<path class="path1" d="M512 64c-247.040 0-448 200.96-448 448s200.96 448 448 448 448-200.96 448-448-200.96-448-448-448zM640.768 576c17.696 0 32 14.304 32 32s-14.304 32-32 32h-96.768v95.136c0 17.696-14.304 32-32 32s-32-14.304-32-32v-95.136h-95.104c-17.696 0-32-14.304-32-32s14.304-32 32-32h95.104v-64h-95.104c-17.696 0-32-14.304-32-32s14.304-32 32-32h95.104v-19.776l-118.432-118.624c-12.544-12.48-12.064-32.736 0.416-45.248 12.512-12.576 32.704-12.512 45.216-0.064l107.584 107.36 101.632-106.784c12.288-12.832 32.416-13.216 45.152-1.12 12.8 12.192 13.056 32.48 0.864 45.248l-118.432 123.872v15.136h96.768c17.696 0 32 14.304 32 32s-14.304 32-32 32h-96.768v64h96.768z"></path>
</symbol>
<symbol id="icon-iconfont-searchlist" viewBox="0 0 1024 1024">
	<title>iconfont-searchlist</title>
	<path class="path1" d="M954.4 813.952l-137.664-180.288c48.832-46.656 79.456-112.224 79.456-184.928 0-141.152-114.848-256-256-256s-256 114.848-256 256 114.848 256 256 256c45.472 0 88.096-12.032 125.152-32.896l138.144 180.928c6.304 8.256 15.808 12.608 25.472 12.608 6.752 0 13.6-2.112 19.36-6.56 14.112-10.752 16.8-30.848 6.080-44.864zM448.224 448.704c0-105.888 86.112-192 192-192s192 86.112 192 192-86.112 192-192 192-192-86.112-192-192zM320 320h-192c-17.664 0-32-14.336-32-32s14.336-32 32-32h192c17.664 0 32 14.336 32 32s-14.336 32-32 32zM256 576h-128c-17.664 0-32-14.304-32-32 0-17.664 14.336-32 32-32h128c17.664 0 32 14.336 32 32 0 17.696-14.336 32-32 32zM480 800h-352c-17.664 0-32-14.304-32-32s14.336-32 32-32h352c17.664 0 32 14.304 32 32s-14.336 32-32 32z"></path>
</symbol>
<symbol id="icon-iconfont-shopfill" viewBox="0 0 1024 1024">
	<title>iconfont-shopfill</title>
	<path class="path1" d="M952.832 352.768c-0.064-0.48-0.16-0.928-0.256-1.312-0.384-1.856-0.896-3.648-1.632-5.376l-75.008-186.72c-12.96-38.592-48.832-62.56-93.952-62.56h-526.496c-44.224 0-78.592 23.52-91.040 60.704l-80.64 190.528c-0.384 1.12-0.8 2.784-1.152 4.48-5.856 17.984-8.8 36.448-8.8 54.976 0.064 65.184 35.84 124.704 93.28 155.264 23.648 12.672 51.52 19.072 82.816 19.072 0.032 0 0.064 0 0.096 0 52.512-0.128 101.152-23.2 134.304-62.688 32.992 39.136 81.248 62.080 133.664 62.4 52-0.384 100.096-23.424 132.96-62.56 33.152 39.488 81.856 62.496 134.624 62.496 31.936-0.192 60.288-6.88 84.16-20 56.576-30.88 91.68-90.176 91.648-154.656 0.032-18.56-3.008-37.12-8.576-54.048zM766.432 383.968h-512.032c-17.664 0-32-14.336-32-32s14.336-32 32-32h512.032c17.696 0 32 14.336 32 32s-14.304 32-32 32zM895.072 640c0-17.696-14.304-32-32-32-3.296 0-6.272 0.928-9.248 1.888v0c-23.712 9.376-54.048 14.432-76.928 13.184-50.432-2.688-88.864-12.736-125.888-44.256-36.512 31.136-83.104 48.864-132.704 49.312-50.304-0.32-97.152-12.928-133.856-44.128-36.928 31.488-84.064 46.816-134.272 46.816h-0.192c-30.656 0-47.936-5.824-75.84-16.128-0.768-0.384-1.568-0.576-2.368-0.864-1.344-0.512-2.368-0.864-3.744-1.376 0 0-4.608-0.8-7.136-0.8 0 0-0.032 0-0.064 0-17.664 0-31.968 14.368-31.936 32.064l0.224 171.488c0 45.12 36.768 81.824 81.984 81.824l602.176-0.384c45.152-0.128 81.888-36.928 81.888-82.048l-0.096-174.592z"></path>
</symbol>
<symbol id="icon-iconfont-shu" viewBox="0 0 1000 1024">
	<title>iconfont-shu</title>
	<path class="path1" d="M843.352 934.587h-554.646v-845.174h264.117v475.41l79.235-105.647h52.824l79.235 105.647v-475.41h79.235c14.606 0 26.412 11.832 26.412 26.412v792.351c-0.001 14.606-11.808 26.411-26.413 26.411zM130.236 908.176v-792.352c0-14.58 11.806-26.412 26.411-26.412h79.235v845.175h-79.235c-14.605 0-26.411-11.805-26.411-26.411z"></path>
</symbol>
<symbol id="icon-iconfont-up" viewBox="0 0 1024 1024">
	<title>iconfont-up</title>
	<path class="path1" d="M513.491 64.118c-247.565 0-448.244 200.655-448.244 448.198s200.663 448.232 448.244 448.232c247.552 0 448.257-200.689 448.257-448.232s-200.69-448.198-448.257-448.198zM513.491 904.522c-216.276 0-393.104-175.939-393.104-392.205 0-216.253 176.827-392.172 393.104-392.172 216.275 0 392.228 175.92 392.228 392.172 0 216.266-175.952 392.205-392.228 392.205zM512.915 289.415l-169.838 165.468c-5.473 5.472-8.208 12.641-8.208 19.81s2.736 14.339 8.208 19.797c10.932 10.946 28.664 10.946 39.611 0l103.095-103.101v317.301c0 15.489 12.534 28.007 28.008 28.007s28.008-12.518 28.008-28.007v-315.553l101.356 101.352c10.947 10.946 28.679 10.946 39.625 0 10.947-10.945 10.947-28.663 0-39.607l-169.866-165.467z"></path>
</symbol>
<symbol id="icon-iconfont-left" viewBox="0 0 1024 1024">
	<title>iconfont-left</title>
	<path class="path1" d="M767.733 1032.8c8.060 0 16.123-3.108 22.242-9.29 12.239-12.373 12.239-32.416 0-44.813l-449.092-452.86 449.093-452.885c12.239-12.391 12.239-32.437 0-44.807-12.288-12.373-32.159-12.373-44.447 0l-471.292 475.279c-12.285 12.374-12.285 32.434 0 44.807l471.292 475.278c6.166 6.183 14.182 9.29 22.203 9.29z"></path>
</symbol>
<symbol id="icon-arrow-down" viewBox="0 0 1024 1024">
	<title>arrow-down</title>
	<path class="path1" d="M132.198 286.771c-13.875-13.722-36.301-13.722-50.125 0-13.824 13.67-13.824 35.891 0 49.613l404.89 400.896c13.875 13.722 36.25 13.722 50.125 0l404.89-400.896c13.824-13.722 13.875-35.891 0-49.613s-36.352-13.722-50.125-0.051l-379.853 365.619-379.802-365.568z"></path>
</symbol>
<symbol id="icon-iconfont-right" viewBox="0 0 1024 1024">
            <title>iconfont-right</title>
            <path class="path1" d="M347.123 898.088l364.061-367.142c9.489-9.558 9.489-25.055 0-34.613l-364.061-367.142c-9.491-9.558-24.841-9.558-34.334 0-9.455 9.557-9.455 25.041 0 34.613l346.914 349.843-346.914 349.824c-9.455 9.575-9.455 25.059 0 34.616 4.73 4.777 10.958 7.176 17.183 7.176 6.194 0 12.388-2.4 17.151-7.176z"></path>
        </symbol>
<symbol id="icon-iconfont-vipset" viewBox="0 0 1024 1024">
	<title>iconfont-vipset</title>
	<path class="path1" d="M634.456 634.449c33.134-33.134 49.697-72.89 49.697-119.945s-16.563-86.818-49.697-119.952c-33.141-33.134-72.898-49.697-119.952-49.697s-86.811 16.563-119.945 49.697c-33.126 33.126-49.705 72.898-49.705 119.952s16.578 86.811 49.705 119.945c33.134 33.126 72.89 49.69 119.945 49.69s86.811-16.563 119.952-49.69v0 0zM1023.444 442.267v147.124c0 10.594-7.951 21.864-18.553 23.846l-122.602 18.56c-8.604 23.861-17.231 43.736-25.836 60.306 15.234 21.872 39.096 52.355 70.908 91.451 8.604 10.602 8.604 23.193 0.661 31.813-11.931 16.563-33.795 40.425-65.607 71.554-31.805 31.144-52.348 47.054-62.296 47.054-5.293 0-11.255-1.99-17.216-5.962l-91.451-71.569c-19.236 9.933-39.771 18.56-60.306 25.183-7.291 60.299-13.252 101.392-19.229 123.248-3.311 12.606-11.255 18.568-23.854 18.568h-147.117c-12.584 0-23.193-8.619-23.854-19.874l-18.553-121.934c-21.872-7.298-41.761-15.249-59.646-24.53l-93.433 70.908c-4.64 3.972-9.941 5.962-16.563 5.962-5.962 0-11.938-2.65-16.571-7.283-55.666-50.373-92.111-87.479-109.343-111.325-3.304-4.64-4.625-9.288-4.625-15.249 0-5.293 1.982-10.602 5.293-15.234 6.63-9.28 17.9-23.854 33.795-43.736 15.903-20.535 27.841-35.792 35.784-47.062-11.923-21.864-21.196-43.736-27.165-65.592l-121.281-17.907c-11.262-1.99-19.221-12.591-19.221-23.861v-147.109c0-10.602 7.959-21.872 17.9-23.861l123.248-18.56c5.962-20.535 14.581-40.425 25.851-60.96-17.892-25.183-41.093-55.674-70.901-91.451-4.648-5.308-6.645-10.609-6.645-15.918 0-4.633 1.997-9.273 5.977-15.234 11.255-15.903 33.134-39.756 64.931-70.908 32.473-31.813 53.023-47.715 62.964-47.715 5.962 0 11.255 1.982 17.231 6.622l91.451 70.908c19.214-9.941 39.756-18.545 60.299-25.175 7.298-60.314 13.26-101.392 19.221-123.263 3.311-12.584 11.27-18.553 23.854-18.553h147.117c12.599 0 23.186 8.612 23.854 19.882l18.568 121.934c21.857 7.283 41.738 15.234 59.631 24.514l94.094-70.908c3.979-3.979 9.273-5.962 15.903-5.962 5.977 0 11.27 1.982 16.578 6.622 56.988 52.363 93.433 90.122 109.335 112.662 3.311 3.311 4.648 8.604 4.648 14.566 0 5.308-1.997 10.609-5.308 15.249-6.63 9.273-17.885 23.861-33.802 44.404-15.895 19.874-27.818 35.116-35.784 46.386 11.277 21.864 20.543 43.736 27.172 64.939l121.266 18.545c11.277 2.027 19.229 12.614 19.229 23.884v0z"></path>
</symbol>
</defs>
</svg>
